<svg viewBox="0 0 351 124" fill="none" xmlns="http://www.w3.org/2000/svg">
<g>
<path d="M68.3556 93.6893C67.2659 93.6893 66.2914 93 65.9282 91.9661L34.0892 0H0V96.4552H15.326V5.31984C15.326 3.90593 16.4776 2.76596 17.8862 2.76596C18.9758 2.76596 19.9503 3.45524 20.3135 4.48917L52.1614 96.4552H86.2506V0H70.9247V91.1354C70.9247 92.5493 69.773 93.6893 68.3644 93.6893H68.3556Z" fill="#051928"/>
<path d="M212.765 93.6892C211.303 93.6892 210.028 92.7083 209.655 91.3032L192.318 26.0601H176.576L196.713 96.4463H228.808L248.945 26.0601H233.202L215.866 91.3032C215.493 92.7083 214.218 93.6892 212.756 93.6892H212.765Z" fill="#051928"/>
<path d="M135.56 93.6892C134.151 93.6892 132.911 92.7613 132.53 91.4093L113.9 26.0601H98.1572L119.49 96.4463H137.119L129.084 124H143.86L173.387 26.0601H157.645L138.581 91.4269C138.191 92.7701 136.959 93.6892 135.551 93.6892H135.56Z" fill="#051928"/>
<path d="M290.166 24.6638C311.436 24.6638 327.595 40.5085 327.595 61.3106C327.595 82.1128 311.436 97.8249 290.166 97.8249C268.896 97.8249 252.737 81.9802 252.737 61.3106C252.737 40.641 268.896 24.6638 290.166 24.6638ZM290.166 84.4634C303.011 84.4634 312.676 74.5395 312.676 61.3195C312.676 48.0994 303.011 38.0341 290.166 38.0341C277.32 38.0341 267.655 47.958 267.655 61.3195C267.655 74.6809 277.462 84.4634 290.166 84.4634Z" fill="#051928"/>
<path d="M327.595 20.3427C327.595 13.6266 332.565 8.78394 339.297 8.78394C346.03 8.78394 351 13.6266 351 20.3427C351 27.0587 346.03 31.9014 339.297 31.9014C332.565 31.9014 327.595 27.0587 327.595 20.3427ZM339.297 29.3652C344.48 29.3652 348.236 25.6183 348.236 20.3338C348.236 15.0493 344.48 11.3025 339.297 11.3025C334.115 11.3025 330.359 15.0493 330.359 20.3338C330.359 25.6183 334.115 29.3652 339.297 29.3652ZM334.992 14.0596H339.962C342.389 14.0596 344.267 15.7121 344.267 18.1334C344.267 19.7859 343.381 21.2175 341.946 21.7654L344.817 26.0602H341.84L339.297 22.2073H337.534V26.0602H334.992V14.0596ZM339.74 20.0069C340.848 20.0069 341.725 19.238 341.725 18.1334C341.725 17.0288 340.839 16.26 339.74 16.26H337.534V20.0069H339.74Z" fill="#051928"/>
</g>
</svg>
