<svg viewBox="0 0 111 89" fill="none" xmlns="http://www.w3.org/2000/svg">
<path d="M54.6321 38.8308C61.3401 38.8308 66.778 33.3929 66.778 26.685C66.778 19.977 61.3401 14.5392 54.6321 14.5392C47.9242 14.5392 42.4863 19.977 42.4863 26.685C42.4863 33.3929 47.9242 38.8308 54.6321 38.8308Z" stroke="#6862FF" stroke-width="2.4" stroke-miterlimit="10"/>
<path d="M54.6318 0.76123V8.86989" stroke="#6862FF" stroke-width="2.4" stroke-miterlimit="10"/>
<path d="M54.6318 44.5001V52.6088" stroke="#6862FF" stroke-width="2.4" stroke-miterlimit="10"/>
<path d="M36.3193 8.35461L42.0401 14.0925" stroke="#6862FF" stroke-width="2.4" stroke-miterlimit="10"/>
<path d="M67.2422 39.2775L72.9629 45.0154" stroke="#6862FF" stroke-width="2.4" stroke-miterlimit="10"/>
<path d="M28.7256 26.6851H36.8342" stroke="#6862FF" stroke-width="2.4" stroke-miterlimit="10"/>
<path d="M72.4473 26.6851H80.5559" stroke="#6862FF" stroke-width="2.4" stroke-miterlimit="10"/>
<path d="M36.3193 45.0154L42.0401 39.2775" stroke="#6862FF" stroke-width="2.4" stroke-miterlimit="10"/>
<path d="M67.2422 14.0925L72.9629 8.35461" stroke="#6862FF" stroke-width="2.4" stroke-miterlimit="10"/>
<path d="M0.0878906 87.4829H110.912" stroke="#6862FF" stroke-width="2.4" stroke-miterlimit="10"/>
<path d="M9.9834 55.3573L54.6325 87.4827L92.1695 60.4767" stroke="#6862FF" stroke-width="2.4" stroke-miterlimit="1"/>
<path d="M85.9844 52.7977H102.374L97.4946 68.1217L85.9844 52.7977Z" stroke="#6862FF" stroke-width="2.4" stroke-miterlimit="10"/>
</svg>
