<svg viewBox="0 0 112 84" fill="none" xmlns="http://www.w3.org/2000/svg">
<path d="M55.8506 39.9167C62.7911 39.9167 68.4258 34.2819 68.4258 27.3414C68.4258 25.6579 68.0822 24.043 67.4809 22.5656C67.4809 22.5656 67.4295 22.4453 67.4295 22.411C64.2513 14.4226 55.8677 2.48291 55.8677 2.48291C55.8677 2.48291 47.4842 14.4226 44.306 22.411C44.306 22.4281 44.2545 22.5656 44.2545 22.5656C43.6532 24.043 43.3096 25.6579 43.3096 27.3414C43.3096 34.2819 48.9444 39.9167 55.8849 39.9167H55.8506Z" stroke="#6862FF" stroke-width="2.4" stroke-miterlimit="10"/>
<path d="M0.447266 82.5562H111.271" stroke="#6862FF" stroke-width="2.4" stroke-miterlimit="10"/>
<path d="M10.3428 50.4305L55.0091 82.556L92.5289 55.55" stroke="#6862FF" stroke-width="2.4" stroke-miterlimit="1"/>
<path d="M86.3438 47.871H102.733L97.8538 63.195L86.3438 47.871Z" stroke="#6862FF" stroke-width="2.4" stroke-miterlimit="10"/>
</svg>
