<svg viewBox="0 0 68 99" fill="none" xmlns="http://www.w3.org/2000/svg">
<path d="M13.763 17.6674C15.5657 17.6674 17.0272 16.2061 17.0272 14.4034C17.0272 12.6007 15.5657 11.1393 13.763 11.1393C11.9603 11.1393 10.499 12.6007 10.499 14.4034C10.499 16.2061 11.9603 17.6674 13.763 17.6674Z" stroke="#6862FF" stroke-width="2.4" stroke-miterlimit="10"/>
<path d="M4.62339 8.52816C6.42609 8.52816 7.88751 7.06678 7.88751 5.26408C7.88751 3.46138 6.42609 2 4.62339 2C2.82069 2 1.35938 3.46138 1.35938 5.26408C1.35938 7.06678 2.82069 8.52816 4.62339 8.52816Z" stroke="#6862FF" stroke-width="2.4" stroke-miterlimit="10"/>
<path d="M4.62339 26.8068C6.42609 26.8068 7.88751 25.3455 7.88751 23.5428C7.88751 21.7401 6.42609 20.2787 4.62339 20.2787C2.82069 20.2787 1.35938 21.7401 1.35938 23.5428C1.35938 25.3455 2.82069 26.8068 4.62339 26.8068Z" stroke="#6862FF" stroke-width="2.4" stroke-miterlimit="10"/>
<path d="M25.2048 19.2823V9.54163H60.4567V17.2723C53.8255 17.2723 48.4656 22.6495 48.4656 29.2635V31.9779C48.4656 31.9779 56.3509 43.2475 61.5906 61.3202C65.0609 73.2942 65.9198 85.0793 66.1088 91.7964C66.1947 94.9231 63.6864 97.4828 60.5598 97.4828H25.0157C21.9578 97.4828 19.4668 94.9918 19.4668 91.9338V78.0529C19.4668 72.4353 21.3909 66.9722 24.9126 62.6087C28.1595 58.5887 31.9734 53.4177 33.657 49.4665C36.7149 42.2855 36.7148 38.214 36.7148 31.9607V19.2995H25.1876L25.2048 19.2823Z" stroke="#6862FF" stroke-width="2.4" stroke-miterlimit="10"/>
<path d="M24.3281 31.9434C28.5371 31.9434 36.7144 29.5383 36.7144 19.2822" stroke="#6862FF" stroke-width="2.4" stroke-miterlimit="10"/>
<path d="M36.7148 31.9434H48.4484" stroke="#6862FF" stroke-width="2.4" stroke-miterlimit="10"/>
<path d="M32.2646 9.54163V19.2823" stroke="#6862FF" stroke-width="2.4" stroke-miterlimit="10"/>
<path d="M62.7244 65.5808V65.5121C62.7244 68.3123 60.4567 70.58 57.6564 70.58C54.8562 70.58 52.5886 68.3123 52.5886 65.5121M52.5886 65.5121V65.5808M52.5886 65.5121C52.5886 68.3123 50.3209 70.58 47.5207 70.58C44.7204 70.58 42.4527 68.3123 42.4527 65.5121M42.4527 65.5121V65.5808M42.4527 65.5121C42.4527 68.3123 40.185 70.58 37.3848 70.58C34.5846 70.58 32.3169 68.3123 32.3169 65.5121M32.3169 65.5121V65.5808M32.3169 65.5121C32.3169 68.3123 30.0493 70.58 27.249 70.58C24.8096 70.58 22.7652 68.8449 22.2842 66.5428" stroke="#6862FF" stroke-width="2.4" stroke-miterlimit="10"/>
</svg>
