<svg viewBox="0 0 102 97" fill="none" xmlns="http://www.w3.org/2000/svg">
<path d="M10.5811 72.2733C18.6897 86.1543 33.7389 95.4826 50.9698 95.4826C73.0968 95.4826 91.6333 80.1071 96.4779 59.4575" stroke="#6862FF" stroke-width="2.4" stroke-miterlimit="10"/>
<path d="M91.4966 25.4253C83.4223 11.4241 68.3044 1.99268 50.9704 1.99268C28.3796 1.99268 9.53388 18.021 5.1875 39.3063" stroke="#6862FF" stroke-width="2.4" stroke-miterlimit="10"/>
<path d="M82.3223 29.119L99.9999 22.0239L96.8045 39.5469L82.3223 29.119Z" stroke="#6862FF" stroke-width="2.4" stroke-miterlimit="10"/>
<path d="M19.6006 68.6828L1.88867 75.6576L5.18719 58.1519L19.6006 68.6828Z" stroke="#6862FF" stroke-width="2.4" stroke-miterlimit="10"/>
<path d="M50.9696 65.0066C57.9101 65.0066 63.5449 59.3718 63.5449 52.4313C63.5449 50.7477 63.2014 49.1329 62.6001 47.6554C62.6001 47.6554 62.5485 47.5352 62.5485 47.5008C59.3703 39.5124 50.9868 27.5728 50.9868 27.5728C50.9868 27.5728 42.6033 39.5124 39.4251 47.5008C39.4251 47.518 39.3736 47.6554 39.3736 47.6554C38.7723 49.1329 38.4287 50.7477 38.4287 52.4313C38.4287 59.3718 44.0636 65.0066 51.004 65.0066H50.9696Z" stroke="#6862FF" stroke-width="2.4" stroke-miterlimit="10"/>
<path d="M50.9355 45.2847V73.7509" stroke="#6862FF" stroke-width="2.4" stroke-miterlimit="10"/>
</svg>
